<mxfile host="app.diagrams.net" modified="2020-12-08T23:54:45.929Z" agent="5.0 (Windows NT 10.0; Win64; x64) AppleWebKit/537.36 (KHTML, like Gecko) Chrome/87.0.4280.88 Safari/537.36" etag="H1Oo-yYNr6zTxAo0sXA1" version="13.11.0" type="github">
  <diagram id="JErNYBqatxjZG0l4_NgA" name="Page-1">
    <mxGraphModel dx="1117" dy="683" grid="1" gridSize="10" guides="1" tooltips="1" connect="1" arrows="1" fold="1" page="1" pageScale="1" pageWidth="1100" pageHeight="850" math="0" shadow="0">
      <root>
        <mxCell id="0" />
        <mxCell id="1" parent="0" />
        <mxCell id="yam_U2FmzI1xLPi24ONh-35" value="&lt;span style=&quot;font-size: 24px&quot;&gt;L&lt;br&gt;o&lt;br&gt;c&lt;br&gt;a&lt;br&gt;l&lt;br&gt;&lt;br&gt;C&lt;/span&gt;&lt;br style=&quot;font-size: 24px&quot;&gt;&lt;span style=&quot;font-size: 24px&quot;&gt;D&lt;/span&gt;&lt;br style=&quot;font-size: 24px&quot;&gt;&lt;span style=&quot;font-size: 24px&quot;&gt;T&lt;/span&gt;" style="rounded=0;whiteSpace=wrap;html=1;fontStyle=1;strokeWidth=3;" vertex="1" parent="1">
          <mxGeometry x="125" y="120" width="80" height="360" as="geometry" />
        </mxCell>
        <mxCell id="yam_U2FmzI1xLPi24ONh-36" value="&lt;span style=&quot;font-size: 24px&quot;&gt;A&lt;/span&gt;&lt;br style=&quot;font-size: 24px&quot;&gt;&lt;span style=&quot;font-size: 24px&quot;&gt;D&lt;/span&gt;&lt;br style=&quot;font-size: 24px&quot;&gt;&lt;span style=&quot;font-size: 24px&quot;&gt;C&lt;/span&gt;" style="rounded=0;whiteSpace=wrap;html=1;fontStyle=1" vertex="1" parent="1">
          <mxGeometry x="205" y="120" width="40" height="360" as="geometry" />
        </mxCell>
        <mxCell id="yam_U2FmzI1xLPi24ONh-37" value="&lt;span style=&quot;font-size: 24px&quot;&gt;A&lt;/span&gt;&lt;br style=&quot;font-size: 24px&quot;&gt;&lt;span style=&quot;font-size: 24px&quot;&gt;D&lt;/span&gt;&lt;br style=&quot;font-size: 24px&quot;&gt;&lt;span style=&quot;font-size: 24px&quot;&gt;C&lt;/span&gt;" style="rounded=0;whiteSpace=wrap;html=1;fontStyle=1" vertex="1" parent="1">
          <mxGeometry x="245" y="120" width="40" height="360" as="geometry" />
        </mxCell>
        <mxCell id="yam_U2FmzI1xLPi24ONh-38" value="&lt;span style=&quot;font-size: 24px&quot;&gt;A&lt;/span&gt;&lt;br style=&quot;font-size: 24px&quot;&gt;&lt;span style=&quot;font-size: 24px&quot;&gt;D&lt;/span&gt;&lt;br style=&quot;font-size: 24px&quot;&gt;&lt;span style=&quot;font-size: 24px&quot;&gt;C&lt;/span&gt;" style="rounded=0;whiteSpace=wrap;html=1;fontStyle=1" vertex="1" parent="1">
          <mxGeometry x="285" y="120" width="40" height="360" as="geometry" />
        </mxCell>
        <mxCell id="yam_U2FmzI1xLPi24ONh-39" value="&lt;span style=&quot;font-size: 24px&quot;&gt;A&lt;/span&gt;&lt;br style=&quot;font-size: 24px&quot;&gt;&lt;span style=&quot;font-size: 24px&quot;&gt;D&lt;/span&gt;&lt;br style=&quot;font-size: 24px&quot;&gt;&lt;span style=&quot;font-size: 24px&quot;&gt;C&lt;/span&gt;" style="rounded=0;whiteSpace=wrap;html=1;fontStyle=1" vertex="1" parent="1">
          <mxGeometry x="325" y="120" width="40" height="360" as="geometry" />
        </mxCell>
        <mxCell id="yam_U2FmzI1xLPi24ONh-40" value="&lt;span style=&quot;font-size: 24px&quot;&gt;A&lt;/span&gt;&lt;br style=&quot;font-size: 24px&quot;&gt;&lt;span style=&quot;font-size: 24px&quot;&gt;D&lt;/span&gt;&lt;br style=&quot;font-size: 24px&quot;&gt;&lt;span style=&quot;font-size: 24px&quot;&gt;C&lt;/span&gt;" style="rounded=0;whiteSpace=wrap;html=1;fontStyle=1" vertex="1" parent="1">
          <mxGeometry x="365" y="120" width="40" height="360" as="geometry" />
        </mxCell>
        <mxCell id="yam_U2FmzI1xLPi24ONh-41" value="&lt;span style=&quot;font-size: 24px&quot;&gt;A&lt;/span&gt;&lt;br style=&quot;font-size: 24px&quot;&gt;&lt;span style=&quot;font-size: 24px&quot;&gt;D&lt;/span&gt;&lt;br style=&quot;font-size: 24px&quot;&gt;&lt;span style=&quot;font-size: 24px&quot;&gt;C&lt;/span&gt;" style="rounded=0;whiteSpace=wrap;html=1;fontStyle=1" vertex="1" parent="1">
          <mxGeometry x="405" y="120" width="40" height="360" as="geometry" />
        </mxCell>
        <mxCell id="yam_U2FmzI1xLPi24ONh-42" value="&lt;span style=&quot;font-size: 24px&quot;&gt;A&lt;/span&gt;&lt;br style=&quot;font-size: 24px&quot;&gt;&lt;span style=&quot;font-size: 24px&quot;&gt;D&lt;/span&gt;&lt;br style=&quot;font-size: 24px&quot;&gt;&lt;span style=&quot;font-size: 24px&quot;&gt;C&lt;/span&gt;" style="rounded=0;whiteSpace=wrap;html=1;fontStyle=1" vertex="1" parent="1">
          <mxGeometry x="445" y="120" width="40" height="360" as="geometry" />
        </mxCell>
        <mxCell id="yam_U2FmzI1xLPi24ONh-43" value="&lt;span style=&quot;font-size: 24px&quot;&gt;A&lt;/span&gt;&lt;br style=&quot;font-size: 24px&quot;&gt;&lt;span style=&quot;font-size: 24px&quot;&gt;D&lt;/span&gt;&lt;br style=&quot;font-size: 24px&quot;&gt;&lt;span style=&quot;font-size: 24px&quot;&gt;C&lt;/span&gt;" style="rounded=0;whiteSpace=wrap;html=1;fontStyle=1" vertex="1" parent="1">
          <mxGeometry x="485" y="120" width="40" height="360" as="geometry" />
        </mxCell>
        <mxCell id="yam_U2FmzI1xLPi24ONh-44" value="&lt;span style=&quot;font-size: 24px&quot;&gt;A&lt;/span&gt;&lt;br style=&quot;font-size: 24px&quot;&gt;&lt;span style=&quot;font-size: 24px&quot;&gt;D&lt;/span&gt;&lt;br style=&quot;font-size: 24px&quot;&gt;&lt;span style=&quot;font-size: 24px&quot;&gt;C&lt;/span&gt;" style="rounded=0;whiteSpace=wrap;html=1;fontStyle=1" vertex="1" parent="1">
          <mxGeometry x="525" y="120" width="40" height="360" as="geometry" />
        </mxCell>
        <mxCell id="yam_U2FmzI1xLPi24ONh-45" value="&lt;span style=&quot;font-size: 24px&quot;&gt;A&lt;/span&gt;&lt;br style=&quot;font-size: 24px&quot;&gt;&lt;span style=&quot;font-size: 24px&quot;&gt;D&lt;/span&gt;&lt;br style=&quot;font-size: 24px&quot;&gt;&lt;span style=&quot;font-size: 24px&quot;&gt;C&lt;/span&gt;" style="rounded=0;whiteSpace=wrap;html=1;fontStyle=1" vertex="1" parent="1">
          <mxGeometry x="565" y="120" width="40" height="360" as="geometry" />
        </mxCell>
        <mxCell id="yam_U2FmzI1xLPi24ONh-46" value="&lt;span style=&quot;font-size: 24px&quot;&gt;A&lt;/span&gt;&lt;br style=&quot;font-size: 24px&quot;&gt;&lt;span style=&quot;font-size: 24px&quot;&gt;D&lt;/span&gt;&lt;br style=&quot;font-size: 24px&quot;&gt;&lt;span style=&quot;font-size: 24px&quot;&gt;C&lt;/span&gt;" style="rounded=0;whiteSpace=wrap;html=1;fontStyle=1" vertex="1" parent="1">
          <mxGeometry x="605" y="120" width="40" height="360" as="geometry" />
        </mxCell>
        <mxCell id="yam_U2FmzI1xLPi24ONh-47" value="&lt;span style=&quot;font-size: 24px&quot;&gt;A&lt;/span&gt;&lt;br style=&quot;font-size: 24px&quot;&gt;&lt;span style=&quot;font-size: 24px&quot;&gt;D&lt;/span&gt;&lt;br style=&quot;font-size: 24px&quot;&gt;&lt;span style=&quot;font-size: 24px&quot;&gt;C&lt;/span&gt;" style="rounded=0;whiteSpace=wrap;html=1;fontStyle=1" vertex="1" parent="1">
          <mxGeometry x="645" y="120" width="40" height="360" as="geometry" />
        </mxCell>
        <mxCell id="yam_U2FmzI1xLPi24ONh-48" value="&lt;span style=&quot;font-size: 24px&quot;&gt;A&lt;/span&gt;&lt;br style=&quot;font-size: 24px&quot;&gt;&lt;span style=&quot;font-size: 24px&quot;&gt;D&lt;/span&gt;&lt;br style=&quot;font-size: 24px&quot;&gt;&lt;span style=&quot;font-size: 24px&quot;&gt;C&lt;/span&gt;" style="rounded=0;whiteSpace=wrap;html=1;fontStyle=1" vertex="1" parent="1">
          <mxGeometry x="685" y="120" width="40" height="360" as="geometry" />
        </mxCell>
        <mxCell id="yam_U2FmzI1xLPi24ONh-49" value="&lt;span style=&quot;font-size: 24px&quot;&gt;A&lt;/span&gt;&lt;br style=&quot;font-size: 24px&quot;&gt;&lt;span style=&quot;font-size: 24px&quot;&gt;D&lt;/span&gt;&lt;br style=&quot;font-size: 24px&quot;&gt;&lt;span style=&quot;font-size: 24px&quot;&gt;C&lt;/span&gt;" style="rounded=0;whiteSpace=wrap;html=1;fontStyle=1" vertex="1" parent="1">
          <mxGeometry x="725" y="120" width="40" height="360" as="geometry" />
        </mxCell>
        <mxCell id="yam_U2FmzI1xLPi24ONh-50" value="&lt;span style=&quot;font-size: 24px&quot;&gt;A&lt;/span&gt;&lt;br style=&quot;font-size: 24px&quot;&gt;&lt;span style=&quot;font-size: 24px&quot;&gt;D&lt;/span&gt;&lt;br style=&quot;font-size: 24px&quot;&gt;&lt;span style=&quot;font-size: 24px&quot;&gt;C&lt;/span&gt;" style="rounded=0;whiteSpace=wrap;html=1;fontStyle=1" vertex="1" parent="1">
          <mxGeometry x="765" y="120" width="40" height="360" as="geometry" />
        </mxCell>
        <mxCell id="yam_U2FmzI1xLPi24ONh-51" value="&lt;span style=&quot;font-size: 24px&quot;&gt;A&lt;/span&gt;&lt;br style=&quot;font-size: 24px&quot;&gt;&lt;span style=&quot;font-size: 24px&quot;&gt;D&lt;/span&gt;&lt;br style=&quot;font-size: 24px&quot;&gt;&lt;span style=&quot;font-size: 24px&quot;&gt;C&lt;/span&gt;" style="rounded=0;whiteSpace=wrap;html=1;fontStyle=1" vertex="1" parent="1">
          <mxGeometry x="805" y="120" width="40" height="360" as="geometry" />
        </mxCell>
        <mxCell id="yam_U2FmzI1xLPi24ONh-86" value="" style="endArrow=classic;html=1;opacity=90;rounded=1;startArrow=diamond;startFill=1;strokeColor=#FF6666;strokeWidth=3;endFill=1;" edge="1" parent="1">
          <mxGeometry width="50" height="50" relative="1" as="geometry">
            <mxPoint x="825" y="140" as="sourcePoint" />
            <mxPoint x="665" y="140" as="targetPoint" />
          </mxGeometry>
        </mxCell>
        <mxCell id="yam_U2FmzI1xLPi24ONh-87" value="" style="endArrow=classic;html=1;opacity=90;rounded=1;startArrow=diamond;startFill=1;strokeColor=#FF6666;strokeWidth=3;endFill=1;" edge="1" parent="1">
          <mxGeometry width="50" height="50" relative="1" as="geometry">
            <mxPoint x="665" y="140" as="sourcePoint" />
            <mxPoint x="505" y="140" as="targetPoint" />
          </mxGeometry>
        </mxCell>
        <mxCell id="yam_U2FmzI1xLPi24ONh-90" value="" style="endArrow=classic;html=1;opacity=90;rounded=1;startArrow=diamond;startFill=1;strokeColor=#FF6666;strokeWidth=3;endFill=1;" edge="1" parent="1">
          <mxGeometry width="50" height="50" relative="1" as="geometry">
            <mxPoint x="505" y="140" as="sourcePoint" />
            <mxPoint x="345" y="140" as="targetPoint" />
          </mxGeometry>
        </mxCell>
        <mxCell id="yam_U2FmzI1xLPi24ONh-91" value="" style="endArrow=classic;html=1;opacity=90;rounded=1;startArrow=diamond;startFill=1;strokeColor=#FF6666;strokeWidth=3;endFill=1;" edge="1" parent="1">
          <mxGeometry width="50" height="50" relative="1" as="geometry">
            <mxPoint x="345" y="140" as="sourcePoint" />
            <mxPoint x="185" y="140" as="targetPoint" />
          </mxGeometry>
        </mxCell>
        <mxCell id="yam_U2FmzI1xLPi24ONh-116" value="" style="endArrow=classic;html=1;opacity=90;rounded=1;startArrow=diamond;startFill=1;strokeColor=#FF6666;strokeWidth=3;endFill=1;" edge="1" parent="1">
          <mxGeometry width="50" height="50" relative="1" as="geometry">
            <mxPoint x="785" y="159.9999999999999" as="sourcePoint" />
            <mxPoint x="625" y="159.9999999999999" as="targetPoint" />
          </mxGeometry>
        </mxCell>
        <mxCell id="yam_U2FmzI1xLPi24ONh-117" value="" style="endArrow=classic;html=1;opacity=90;rounded=1;startArrow=diamond;startFill=1;strokeColor=#FF6666;strokeWidth=3;endFill=1;" edge="1" parent="1">
          <mxGeometry width="50" height="50" relative="1" as="geometry">
            <mxPoint x="625" y="159.9999999999999" as="sourcePoint" />
            <mxPoint x="465" y="159.9999999999999" as="targetPoint" />
          </mxGeometry>
        </mxCell>
        <mxCell id="yam_U2FmzI1xLPi24ONh-118" value="" style="endArrow=classic;html=1;opacity=90;rounded=1;startArrow=diamond;startFill=1;strokeColor=#FF6666;strokeWidth=3;endFill=1;" edge="1" parent="1">
          <mxGeometry width="50" height="50" relative="1" as="geometry">
            <mxPoint x="465" y="159.9999999999999" as="sourcePoint" />
            <mxPoint x="305" y="159.9999999999999" as="targetPoint" />
          </mxGeometry>
        </mxCell>
        <mxCell id="yam_U2FmzI1xLPi24ONh-119" value="" style="endArrow=classic;html=1;opacity=90;rounded=1;startArrow=diamond;startFill=1;strokeColor=#FF6666;strokeWidth=3;endFill=1;" edge="1" parent="1">
          <mxGeometry width="50" height="50" relative="1" as="geometry">
            <mxPoint x="305" y="160" as="sourcePoint" />
            <mxPoint x="185" y="160" as="targetPoint" />
          </mxGeometry>
        </mxCell>
        <mxCell id="yam_U2FmzI1xLPi24ONh-128" value="" style="endArrow=classic;html=1;opacity=90;rounded=1;startArrow=diamond;startFill=1;strokeColor=#FF6666;strokeWidth=3;endFill=1;" edge="1" parent="1">
          <mxGeometry width="50" height="50" relative="1" as="geometry">
            <mxPoint x="745" y="179.9999999999999" as="sourcePoint" />
            <mxPoint x="585" y="179.9999999999999" as="targetPoint" />
          </mxGeometry>
        </mxCell>
        <mxCell id="yam_U2FmzI1xLPi24ONh-129" value="" style="endArrow=classic;html=1;opacity=90;rounded=1;startArrow=diamond;startFill=1;strokeColor=#FF6666;strokeWidth=3;endFill=1;" edge="1" parent="1">
          <mxGeometry width="50" height="50" relative="1" as="geometry">
            <mxPoint x="585" y="179.9999999999999" as="sourcePoint" />
            <mxPoint x="425" y="179.9999999999999" as="targetPoint" />
          </mxGeometry>
        </mxCell>
        <mxCell id="yam_U2FmzI1xLPi24ONh-130" value="" style="endArrow=classic;html=1;opacity=90;rounded=1;startArrow=diamond;startFill=1;strokeColor=#FF6666;strokeWidth=3;endFill=1;" edge="1" parent="1">
          <mxGeometry width="50" height="50" relative="1" as="geometry">
            <mxPoint x="425" y="179.9999999999999" as="sourcePoint" />
            <mxPoint x="265" y="179.9999999999999" as="targetPoint" />
          </mxGeometry>
        </mxCell>
        <mxCell id="yam_U2FmzI1xLPi24ONh-131" value="" style="endArrow=classic;html=1;opacity=90;rounded=1;startArrow=diamond;startFill=1;strokeColor=#FF6666;strokeWidth=3;endFill=1;" edge="1" parent="1">
          <mxGeometry width="50" height="50" relative="1" as="geometry">
            <mxPoint x="265" y="180" as="sourcePoint" />
            <mxPoint x="185" y="180" as="targetPoint" />
          </mxGeometry>
        </mxCell>
        <mxCell id="yam_U2FmzI1xLPi24ONh-132" value="" style="endArrow=classic;html=1;opacity=90;rounded=1;startArrow=diamond;startFill=1;strokeColor=#FF6666;strokeWidth=3;endFill=1;" edge="1" parent="1">
          <mxGeometry width="50" height="50" relative="1" as="geometry">
            <mxPoint x="705" y="199.9999999999999" as="sourcePoint" />
            <mxPoint x="545" y="199.9999999999999" as="targetPoint" />
          </mxGeometry>
        </mxCell>
        <mxCell id="yam_U2FmzI1xLPi24ONh-133" value="" style="endArrow=classic;html=1;opacity=90;rounded=1;startArrow=diamond;startFill=1;strokeColor=#FF6666;strokeWidth=3;endFill=1;" edge="1" parent="1">
          <mxGeometry width="50" height="50" relative="1" as="geometry">
            <mxPoint x="545" y="199.9999999999999" as="sourcePoint" />
            <mxPoint x="385" y="199.9999999999999" as="targetPoint" />
          </mxGeometry>
        </mxCell>
        <mxCell id="yam_U2FmzI1xLPi24ONh-134" value="" style="endArrow=classic;html=1;opacity=90;rounded=1;startArrow=diamond;startFill=1;strokeColor=#FF6666;strokeWidth=3;endFill=1;" edge="1" parent="1">
          <mxGeometry width="50" height="50" relative="1" as="geometry">
            <mxPoint x="385" y="199.9999999999999" as="sourcePoint" />
            <mxPoint x="225" y="199.9999999999999" as="targetPoint" />
          </mxGeometry>
        </mxCell>
        <mxCell id="yam_U2FmzI1xLPi24ONh-135" value="" style="endArrow=classic;html=1;opacity=90;rounded=1;startArrow=diamond;startFill=1;strokeColor=#FF6666;strokeWidth=3;endFill=1;" edge="1" parent="1">
          <mxGeometry width="50" height="50" relative="1" as="geometry">
            <mxPoint x="225" y="200" as="sourcePoint" />
            <mxPoint x="185" y="200" as="targetPoint" />
          </mxGeometry>
        </mxCell>
      </root>
    </mxGraphModel>
  </diagram>
</mxfile>
